<svg width="74" height="89" viewBox="0 0 74 89" fill="none" xmlns="http://www.w3.org/2000/svg">
<path d="M2.40627 25.5869C1.08406 17.3068 6.80624 9.55076 15.1078 8.3708L56.1032 2.54381C65.4027 1.222 73.6154 8.67516 73.1993 18.0589L70.862 70.7766C70.4435 80.2147 61.5095 86.9207 52.33 84.6869L19.8995 76.795C14.0277 75.3661 9.58681 70.5532 8.63388 64.5857L2.40627 25.5869Z" fill="#FCA311"/>
<path d="M41.368 62.992C44.44 62.992 46.84 62.16 48.568 60.496C50.36 58.768 51.256 56.528 51.256 53.776V48.304H43.96C40.376 48.304 37.656 49.008 35.8 50.416C34.008 51.824 33.112 53.616 33.112 55.792C33.112 58.032 33.816 59.792 35.224 61.072C36.632 62.352 38.68 62.992 41.368 62.992ZM51.544 64.24C49.048 68.336 44.664 70.384 38.392 70.384C33.784 70.384 30.072 69.072 27.256 66.448C24.504 63.76 23.128 60.368 23.128 56.272C23.128 51.6 24.888 47.984 28.408 45.424C31.928 42.8 36.856 41.488 43.192 41.488H51.256V38.704C51.256 35.376 50.456 32.88 48.856 31.216C47.256 29.488 44.6 28.624 40.888 28.624C35.704 28.624 31 30.064 26.776 32.944V23.824C30.552 21.648 35.544 20.56 41.752 20.56C54.488 20.56 60.856 26.736 60.856 39.088V70H51.544V64.24Z" fill="#333533"/>
</svg>
