<svg width="66" height="104" viewBox="0 0 66 104" fill="none" xmlns="http://www.w3.org/2000/svg">
<path d="M2.57774 33.2435C1.63292 26.0535 5.96707 19.2172 12.8731 17.0045L46.3692 6.2724C56.0492 3.17092 65.946 10.3924 65.946 20.5571V84.4744C65.946 94.3303 56.603 101.508 47.08 98.9677L19.6099 91.6402C13.7407 90.0747 9.39516 85.1239 8.60374 79.1013L2.57774 33.2435Z" fill="#FCA311"/>
<path d="M45.132 77.496C48.204 77.496 50.604 76.664 52.332 75C54.124 73.272 55.02 71.032 55.02 68.28V62.808H47.724C44.14 62.808 41.42 63.512 39.564 64.92C37.772 66.328 36.876 68.12 36.876 70.296C36.876 72.536 37.58 74.296 38.988 75.576C40.396 76.856 42.444 77.496 45.132 77.496ZM55.308 78.744C52.812 82.84 48.428 84.888 42.156 84.888C37.548 84.888 33.836 83.576 31.02 80.952C28.268 78.264 26.892 74.872 26.892 70.776C26.892 66.104 28.652 62.488 32.172 59.928C35.692 57.304 40.62 55.992 46.956 55.992H55.02V53.208C55.02 49.88 54.22 47.384 52.62 45.72C51.02 43.992 48.364 43.128 44.652 43.128C39.468 43.128 34.764 44.568 30.54 47.448V38.328C34.316 36.152 39.308 35.064 45.516 35.064C58.252 35.064 64.62 41.24 64.62 53.592V84.504H55.308V78.744Z" fill="black"/>
</svg>
