<svg width="216" height="104" viewBox="0 0 216 104" fill="none" xmlns="http://www.w3.org/2000/svg">
<path d="M1.68571 33.2435C0.740892 26.0535 5.07504 19.2172 11.981 17.0045L45.4772 6.2724C55.1572 3.17092 65.054 10.3924 65.054 20.5571V84.4744C65.054 94.3303 55.7109 101.508 46.188 98.9677L18.7179 91.6402C12.8487 90.0747 8.50313 85.1239 7.71172 79.1013L1.68571 33.2435Z" fill="#FCA311"/>
<path d="M44.2399 77.496C47.3119 77.496 49.7119 76.664 51.4399 75C53.2319 73.272 54.1279 71.032 54.1279 68.28V62.808H46.8319C43.2479 62.808 40.5279 63.512 38.6719 64.92C36.8799 66.328 35.9839 68.12 35.9839 70.296C35.9839 72.536 36.6879 74.296 38.0959 75.576C39.5039 76.856 41.5519 77.496 44.2399 77.496ZM54.4159 78.744C51.9199 82.84 47.5359 84.888 41.2639 84.888C36.6559 84.888 32.9439 83.576 30.1279 80.952C27.3759 78.264 25.9999 74.872 25.9999 70.776C25.9999 66.104 27.7599 62.488 31.2799 59.928C34.7999 57.304 39.7279 55.992 46.0639 55.992H54.1279V53.208C54.1279 49.88 53.3279 47.384 51.7279 45.72C50.1279 43.992 47.4719 43.128 43.7599 43.128C38.5759 43.128 33.8719 44.568 29.6479 47.448V38.328C33.4239 36.152 38.4159 35.064 44.6239 35.064C57.3599 35.064 63.7279 41.24 63.7279 53.592V84.504H54.4159V78.744Z" fill="white"/>
<path d="M88.2102 84.504H78.7062V16.632H88.2102V84.504Z" fill="white"/>
<path d="M113.661 84.504H104.157V35.832H113.661V84.504ZM114.813 20.952C114.813 22.552 114.237 23.928 113.085 25.08C111.933 26.232 110.525 26.808 108.861 26.808C107.197 26.808 105.789 26.264 104.637 25.176C103.549 24.024 103.005 22.616 103.005 20.952C103.005 19.288 103.549 17.88 104.637 16.728C105.789 15.576 107.197 15 108.861 15C110.525 15 111.933 15.576 113.085 16.728C114.237 17.88 114.813 19.288 114.813 20.952Z" fill="white"/>
<path d="M163.593 82.584C160.457 84.504 156.457 85.464 151.593 85.464C143.977 85.464 137.897 83.064 133.353 78.264C128.809 73.464 126.537 67.48 126.537 60.312C126.537 53.336 128.809 47.384 133.353 42.456C137.961 37.464 144.169 34.968 151.977 34.968C156.201 34.968 160.073 35.864 163.593 37.656V46.296C160.457 44.312 156.905 43.32 152.937 43.32C147.881 43.32 143.817 44.92 140.745 48.12C137.737 51.32 136.233 55.416 136.233 60.408C136.361 65.336 137.865 69.4 140.745 72.6C143.625 75.736 147.657 77.304 152.841 77.304C156.681 77.304 160.265 76.248 163.593 74.136V82.584Z" fill="white"/>
<path d="M212.62 81.912C209.036 83.96 204.3 84.984 198.412 84.984C190.86 84.984 184.844 82.712 180.364 78.168C175.884 73.624 173.644 67.672 173.644 60.312C173.644 52.504 175.692 46.392 179.788 41.976C183.884 37.496 189.1 35.256 195.436 35.256C201.644 35.256 206.572 37.208 210.22 41.112C213.868 44.952 215.692 50.52 215.692 57.816C215.692 59.8 215.5 61.88 215.116 64.056H183.148C183.788 68.28 185.58 71.512 188.524 73.752C191.468 75.992 195.18 77.112 199.66 77.112C204.844 77.112 209.164 75.896 212.62 73.464V81.912ZM195.628 43.032C192.428 43.032 189.676 44.216 187.372 46.584C185.068 48.888 183.628 52.248 183.052 56.664H206.572V54.936C206.444 51.288 205.452 48.408 203.596 46.296C201.74 44.12 199.084 43.032 195.628 43.032Z" fill="white"/>
</svg>
