<svg width="216" height="104" viewBox="0 0 216 104" fill="none" xmlns="http://www.w3.org/2000/svg">
<path d="M1.63175 33.2435C0.686937 26.0535 5.02108 19.2172 11.9271 17.0045L45.4232 6.2724C55.1032 3.17092 65 10.3924 65 20.5571V84.4744C65 94.3303 55.657 101.508 46.134 98.9677L18.664 91.6402C12.7948 90.0747 8.44917 85.1239 7.65776 79.1013L1.63175 33.2435Z" fill="#FCA311"/>
<path d="M44.186 77.496C47.258 77.496 49.658 76.664 51.386 75C53.178 73.272 54.074 71.032 54.074 68.28V62.808H46.778C43.194 62.808 40.474 63.512 38.618 64.92C36.826 66.328 35.93 68.12 35.93 70.296C35.93 72.536 36.634 74.296 38.042 75.576C39.45 76.856 41.498 77.496 44.186 77.496ZM54.362 78.744C51.866 82.84 47.482 84.888 41.21 84.888C36.602 84.888 32.89 83.576 30.074 80.952C27.322 78.264 25.946 74.872 25.946 70.776C25.946 66.104 27.706 62.488 31.226 59.928C34.746 57.304 39.674 55.992 46.01 55.992H54.074V53.208C54.074 49.88 53.274 47.384 51.674 45.72C50.074 43.992 47.418 43.128 43.706 43.128C38.522 43.128 33.818 44.568 29.594 47.448V38.328C33.37 36.152 38.362 35.064 44.57 35.064C57.306 35.064 63.674 41.24 63.674 53.592V84.504H54.362V78.744Z" fill="black"/>
<path d="M88.1562 84.504H78.6522V16.632H88.1562V84.504Z" fill="black"/>
<path d="M113.607 84.504H104.103V35.832H113.607V84.504ZM114.759 20.952C114.759 22.552 114.183 23.928 113.031 25.08C111.879 26.232 110.471 26.808 108.807 26.808C107.143 26.808 105.735 26.264 104.583 25.176C103.495 24.024 102.951 22.616 102.951 20.952C102.951 19.288 103.495 17.88 104.583 16.728C105.735 15.576 107.143 15 108.807 15C110.471 15 111.879 15.576 113.031 16.728C114.183 17.88 114.759 19.288 114.759 20.952Z" fill="black"/>
<path d="M163.539 82.584C160.403 84.504 156.403 85.464 151.539 85.464C143.923 85.464 137.843 83.064 133.299 78.264C128.755 73.464 126.483 67.48 126.483 60.312C126.483 53.336 128.755 47.384 133.299 42.456C137.907 37.464 144.115 34.968 151.923 34.968C156.147 34.968 160.019 35.864 163.539 37.656V46.296C160.403 44.312 156.851 43.32 152.883 43.32C147.827 43.32 143.763 44.92 140.691 48.12C137.683 51.32 136.179 55.416 136.179 60.408C136.307 65.336 137.811 69.4 140.691 72.6C143.571 75.736 147.603 77.304 152.787 77.304C156.627 77.304 160.211 76.248 163.539 74.136V82.584Z" fill="black"/>
<path d="M212.566 81.912C208.982 83.96 204.246 84.984 198.358 84.984C190.806 84.984 184.79 82.712 180.31 78.168C175.83 73.624 173.59 67.672 173.59 60.312C173.59 52.504 175.638 46.392 179.734 41.976C183.83 37.496 189.046 35.256 195.382 35.256C201.59 35.256 206.518 37.208 210.166 41.112C213.814 44.952 215.638 50.52 215.638 57.816C215.638 59.8 215.446 61.88 215.062 64.056H183.094C183.734 68.28 185.526 71.512 188.47 73.752C191.414 75.992 195.126 77.112 199.606 77.112C204.79 77.112 209.11 75.896 212.566 73.464V81.912ZM195.574 43.032C192.374 43.032 189.622 44.216 187.318 46.584C185.014 48.888 183.574 52.248 182.998 56.664H206.518V54.936C206.39 51.288 205.398 48.408 203.542 46.296C201.686 44.12 199.03 43.032 195.574 43.032Z" fill="black"/>
</svg>
