<svg width="225" height="89" viewBox="0 0 225 89" fill="none" xmlns="http://www.w3.org/2000/svg">
<path d="M2.40627 25.5869C1.08406 17.3068 6.80624 9.55076 15.1078 8.3708L56.1032 2.54381C65.4027 1.222 73.6154 8.67516 73.1993 18.0589L70.862 70.7766C70.4435 80.2147 61.5095 86.9207 52.33 84.6869L19.8995 76.795C14.0277 75.3661 9.58681 70.5532 8.63388 64.5857L2.40627 25.5869Z" fill="#FCA311"/>
<path d="M41.368 62.992C44.44 62.992 46.84 62.16 48.568 60.496C50.36 58.768 51.256 56.528 51.256 53.776V48.304H43.96C40.376 48.304 37.656 49.008 35.8 50.416C34.008 51.824 33.112 53.616 33.112 55.792C33.112 58.032 33.816 59.792 35.224 61.072C36.632 62.352 38.68 62.992 41.368 62.992ZM51.544 64.24C49.048 68.336 44.664 70.384 38.392 70.384C33.784 70.384 30.072 69.072 27.256 66.448C24.504 63.76 23.128 60.368 23.128 56.272C23.128 51.6 24.888 47.984 28.408 45.424C31.928 42.8 36.856 41.488 43.192 41.488H51.256V38.704C51.256 35.376 50.456 32.88 48.856 31.216C47.256 29.488 44.6 28.624 40.888 28.624C35.704 28.624 31 30.064 26.776 32.944V23.824C30.552 21.648 35.544 20.56 41.752 20.56C54.488 20.56 60.856 26.736 60.856 39.088V70H51.544V64.24Z" fill="#333533"/>
<path d="M88.2182 70H78.7142V2.12798H88.2182V70Z" fill="#333533"/>
<path d="M116.549 70H107.045V21.328H116.549V70ZM117.701 6.44797C117.701 8.04797 117.125 9.42397 115.973 10.576C114.821 11.728 113.413 12.304 111.749 12.304C110.085 12.304 108.677 11.76 107.525 10.672C106.437 9.51997 105.893 8.11197 105.893 6.44797C105.893 4.78397 106.437 3.37598 107.525 2.22398C108.677 1.07198 110.085 0.495972 111.749 0.495972C113.413 0.495972 114.821 1.07198 115.973 2.22398C117.125 3.37598 117.701 4.78397 117.701 6.44797Z" fill="#333533"/>
<path d="M169.361 68.08C166.225 70 162.225 70.96 157.361 70.96C149.745 70.96 143.665 68.56 139.121 63.76C134.577 58.96 132.305 52.976 132.305 45.808C132.305 38.832 134.577 32.88 139.121 27.952C143.729 22.96 149.937 20.464 157.745 20.464C161.969 20.464 165.841 21.36 169.361 23.152V31.792C166.225 29.808 162.673 28.816 158.705 28.816C153.649 28.816 149.585 30.416 146.513 33.616C143.505 36.816 142.001 40.912 142.001 45.904C142.129 50.832 143.633 54.896 146.513 58.096C149.393 61.232 153.425 62.8 158.609 62.8C162.449 62.8 166.033 61.744 169.361 59.632V68.08Z" fill="#333533"/>
<path d="M221.268 67.408C217.684 69.456 212.948 70.48 207.06 70.48C199.508 70.48 193.492 68.208 189.012 63.664C184.532 59.12 182.292 53.168 182.292 45.808C182.292 38 184.34 31.888 188.436 27.472C192.532 22.992 197.748 20.752 204.084 20.752C210.292 20.752 215.22 22.704 218.868 26.608C222.516 30.448 224.34 36.016 224.34 43.312C224.34 45.296 224.148 47.376 223.764 49.552H191.796C192.436 53.776 194.228 57.008 197.172 59.248C200.116 61.488 203.828 62.608 208.308 62.608C213.492 62.608 217.812 61.392 221.268 58.96V67.408ZM204.276 28.528C201.076 28.528 198.324 29.712 196.02 32.08C193.716 34.384 192.276 37.744 191.7 42.16H215.22V40.432C215.092 36.784 214.1 33.904 212.244 31.792C210.388 29.616 207.732 28.528 204.276 28.528Z" fill="#333533"/>
</svg>
