<svg width="495" height="495" viewBox="0 0 495 495" fill="none" xmlns="http://www.w3.org/2000/svg">
<g clip-path="url(#clip0)">
<path d="M133.598 134.911C148.498 120.211 168.298 112.211 189.298 112.311C210.298 112.511 229.898 120.811 244.598 135.711C259.298 150.611 267.298 170.411 267.198 191.411C267.198 194.711 264.498 197.411 261.198 197.411C257.898 197.411 255.198 194.711 255.198 191.411C255.298 173.611 248.498 156.911 236.098 144.211C223.698 131.511 206.998 124.511 189.198 124.411C171.398 124.311 154.698 131.111 141.998 143.511C129.298 155.911 122.298 172.611 122.198 190.411C122.098 208.211 128.898 224.911 141.298 237.611C153.698 250.311 170.398 257.311 188.198 257.411C191.498 257.411 194.198 260.111 194.198 263.411C194.198 266.711 191.498 269.411 188.198 269.411C167.198 269.211 147.598 260.911 132.898 246.011C118.198 231.111 109.998 211.211 110.198 190.211C110.398 169.211 118.698 149.611 133.598 134.911Z" fill="#333533"/>
<path d="M13.698 224.311L32.298 216.611C29.398 199.311 29.398 181.911 32.298 164.711L13.698 157.011C8.39801 154.911 4.09802 150.711 1.89801 145.211C-0.401978 139.711 -0.401978 133.711 1.89801 128.211L12.298 103.011C14.598 97.511 18.798 93.311 24.298 91.011C29.798 88.711 35.798 88.711 41.298 91.011L59.898 98.711C69.998 84.511 82.298 72.211 96.598 62.011L88.898 43.411C84.198 32.111 89.598 19.111 100.898 14.411L125.998 4.01101C137.298 -0.688989 150.298 4.71101 154.998 16.011L162.698 34.611C179.998 31.711 197.398 31.711 214.598 34.611L222.298 16.011C224.598 10.511 228.798 6.31101 234.298 4.01101C239.798 1.71101 245.798 1.71101 251.298 4.01101L276.398 14.411C281.898 16.711 286.098 20.911 288.398 26.411C290.698 31.911 290.698 37.911 288.398 43.411L280.698 62.011C294.898 72.111 307.198 84.411 317.398 98.711L335.998 91.011C341.498 88.711 347.498 88.711 352.998 91.011C358.498 93.311 362.698 97.511 364.998 103.011L375.498 128.111C380.198 139.411 374.798 152.411 363.498 157.111L340.398 166.711C337.298 168.011 333.798 166.511 332.598 163.511C331.298 160.411 332.798 156.911 335.798 155.711L358.898 146.111C364.098 143.911 366.598 138.011 364.398 132.811L353.998 107.711C351.898 102.511 345.898 100.011 340.698 102.211L317.598 111.811C314.998 112.911 311.898 112.011 310.298 109.611C299.598 93.611 285.998 80.011 270.098 69.411C267.698 67.811 266.798 64.811 267.898 62.111L277.498 39.011C278.498 36.511 278.498 33.711 277.498 31.211C276.498 28.711 274.498 26.711 271.998 25.711L246.798 15.311C244.298 14.311 241.498 14.311 238.998 15.311C236.498 16.311 234.498 18.311 233.498 20.811L223.898 43.911C222.798 46.511 219.998 48.011 217.198 47.511C198.298 43.711 179.198 43.711 160.298 47.511C157.498 48.111 154.698 46.611 153.598 43.911L143.998 20.811C141.798 15.611 135.898 13.111 130.698 15.311L105.598 25.711C100.398 27.911 97.898 33.811 100.098 39.011L109.498 61.911C110.598 64.511 109.698 67.611 107.298 69.211C91.298 79.911 77.698 93.511 67.098 109.411C65.498 111.811 62.498 112.711 59.798 111.611L36.698 102.011C34.198 101.011 31.398 101.011 28.898 102.011C26.398 103.011 24.398 105.011 23.398 107.511L12.998 132.711C11.998 135.211 11.998 138.011 12.998 140.511C13.998 143.011 15.998 145.011 18.498 146.011L41.598 155.611C44.198 156.711 45.698 159.511 45.198 162.311C41.398 181.211 41.498 200.311 45.198 219.211C45.798 222.011 44.298 224.811 41.598 225.911L18.498 235.511C13.298 237.711 10.798 243.611 12.998 248.811L23.398 273.911C25.598 279.111 31.498 281.611 36.698 279.411L59.798 269.811C62.398 268.711 65.498 269.611 67.098 272.011C77.798 288.011 91.398 301.611 107.298 312.211C109.698 313.811 110.598 316.811 109.498 319.511L99.898 342.611C98.898 345.111 98.898 347.911 99.898 350.411C100.898 352.911 102.898 354.911 105.398 355.911L130.598 366.311C133.098 367.311 135.898 367.311 138.398 366.311C140.898 365.311 142.898 363.311 143.898 360.811L153.498 337.711C154.798 334.611 158.298 333.211 161.298 334.511C164.398 335.811 165.798 339.311 164.498 342.311L154.898 365.411C152.598 370.911 148.398 375.111 142.898 377.411C140.198 378.511 137.298 379.111 134.398 379.111C131.498 379.111 128.598 378.511 125.898 377.411L100.698 367.011C95.198 364.711 90.998 360.511 88.698 355.011C86.398 349.511 86.398 343.511 88.698 338.011L96.398 319.411C82.198 309.311 69.898 297.011 59.698 282.711L41.098 290.411C35.598 292.711 29.598 292.711 24.098 290.411C18.598 288.111 14.398 283.911 12.098 278.411L1.698 253.311C-3.00201 242.011 2.39801 229.011 13.698 224.311Z" fill="#333533"/>
<path d="M350.298 291.711C381.298 291.711 406.498 317.011 406.498 348.011C406.498 379.011 381.298 404.111 350.298 404.111C319.298 404.111 294.098 378.911 294.098 347.911C294.098 316.911 319.298 291.711 350.298 291.711ZM350.298 392.211C374.698 392.211 394.498 372.411 394.498 348.011C394.498 323.611 374.698 303.811 350.298 303.811C325.898 303.811 306.098 323.611 306.098 348.011C306.098 372.411 325.898 392.211 350.298 392.211Z" fill="#333533"/>
<path d="M223.498 320.111H236.798C239.598 308.411 244.198 297.411 250.498 287.111L241.098 277.711C237.698 274.311 235.898 269.911 235.898 265.111C235.898 260.411 237.698 255.911 241.098 252.511L255.098 238.511C258.498 235.111 262.898 233.311 267.698 233.311C272.498 233.311 276.898 235.111 280.298 238.511L289.698 247.911C299.998 241.611 310.998 237.111 322.698 234.211V220.911C322.698 211.111 330.698 203.111 340.498 203.111H360.298C370.098 203.111 378.098 211.111 378.098 220.911V234.211C389.798 237.011 400.798 241.611 411.098 247.911L420.498 238.511C423.898 235.111 428.298 233.311 433.098 233.311C437.798 233.311 442.298 235.111 445.698 238.511L459.698 252.511C463.098 255.911 464.898 260.311 464.898 265.111C464.898 269.811 463.098 274.311 459.698 277.711L450.298 287.111C456.598 297.411 461.098 308.411 463.998 320.111H477.098C486.898 320.111 494.898 328.111 494.898 337.911V357.711C494.798 367.711 486.898 375.611 477.098 375.611H463.798C460.998 387.311 456.398 398.311 450.098 408.611L459.498 418.011C462.898 421.411 464.698 425.811 464.698 430.611C464.698 435.311 462.898 439.811 459.498 443.211L445.498 457.211C442.098 460.611 437.698 462.411 432.898 462.411C428.198 462.411 423.698 460.611 420.298 457.211L410.898 447.811C400.598 454.111 389.598 458.611 377.898 461.511V474.811C377.898 484.611 369.898 492.611 360.098 492.611H340.298C330.498 492.611 322.498 484.611 322.498 474.811V461.411C310.798 458.611 299.798 454.011 289.498 447.711L280.098 457.111C276.698 460.511 272.298 462.311 267.498 462.311C262.698 462.311 258.298 460.511 254.898 457.111L240.898 443.111C237.498 439.711 235.698 435.311 235.698 430.511C235.698 425.811 237.498 421.311 240.898 417.911L250.298 408.511C243.998 398.211 239.498 387.211 236.598 375.511H223.498C213.698 375.511 205.698 367.511 205.698 357.711V337.911C205.698 328.111 213.698 320.111 223.498 320.111ZM217.698 357.911C217.698 361.111 220.298 363.711 223.498 363.711H241.698C244.598 363.711 246.998 365.711 247.598 368.511C250.298 382.011 255.498 394.711 263.198 406.111C264.798 408.511 264.498 411.711 262.498 413.711L249.598 426.611C248.498 427.711 247.898 429.111 247.898 430.711C247.898 432.211 248.498 433.711 249.598 434.811L263.598 448.811C264.698 449.911 266.098 450.511 267.698 450.511C269.298 450.511 270.698 449.911 271.798 448.811L284.698 435.911C286.698 433.911 289.898 433.611 292.298 435.211C303.798 442.911 316.398 448.111 329.898 450.811C332.698 451.411 334.698 453.811 334.698 456.711V474.911C334.698 478.111 337.298 480.711 340.498 480.711H360.298C363.498 480.711 366.098 478.111 366.098 474.911V456.711C366.098 453.811 368.098 451.411 370.898 450.811C384.398 448.111 397.098 442.911 408.498 435.211C409.498 434.511 410.698 434.211 411.798 434.211C413.298 434.211 414.898 434.811 415.998 436.011L428.898 448.911C429.998 450.011 431.398 450.611 432.998 450.611C434.498 450.611 435.998 450.011 437.098 448.911L451.098 434.911C452.198 433.811 452.798 432.411 452.798 430.811C452.798 429.311 452.198 427.811 451.098 426.711L438.198 413.811C436.198 411.811 435.898 408.611 437.498 406.211C445.198 394.711 450.398 382.111 453.098 368.611C453.698 365.811 456.098 363.811 458.998 363.811H477.098C480.298 363.811 482.898 361.211 482.898 358.011V338.111H482.798C482.798 334.911 480.198 332.311 476.998 332.311H458.798C455.898 332.311 453.498 330.311 452.898 327.511C450.198 314.011 444.998 301.311 437.298 289.911C435.698 287.511 435.998 284.311 437.998 282.311L450.998 269.411C452.098 268.311 452.698 266.911 452.698 265.311C452.698 263.811 452.098 262.311 450.998 261.211L436.998 247.211C435.898 246.111 434.498 245.511 432.898 245.511C431.398 245.511 429.898 246.111 428.798 247.211L415.898 260.111C413.898 262.111 410.698 262.411 408.298 260.811C396.798 253.111 384.198 247.911 370.698 245.211C367.898 244.611 365.898 242.211 365.898 239.311V221.111C365.898 217.911 363.298 215.311 360.098 215.311H340.298C337.098 215.311 334.498 217.911 334.498 221.111V239.411C334.498 242.311 332.498 244.711 329.698 245.311C316.198 248.011 303.498 253.211 292.098 260.911C289.698 262.511 286.498 262.211 284.498 260.211L271.598 247.311C270.498 246.211 269.098 245.611 267.498 245.611C265.898 245.611 264.498 246.211 263.398 247.311L249.398 261.311C248.298 262.411 247.698 263.811 247.698 265.411C247.698 266.911 248.298 268.411 249.398 269.511L262.498 282.311C264.498 284.311 264.798 287.511 263.198 289.911C255.498 301.411 250.298 314.011 247.598 327.511C246.998 330.311 244.598 332.311 241.698 332.311H223.498C220.298 332.311 217.698 334.911 217.698 338.111V357.911Z" fill="#333533"/>
</g>
<defs>
<clipPath id="clip0">
<rect width="494.898" height="494.898" fill="white" transform="matrix(-1 0 0 1 494.898 0)"/>
</clipPath>
</defs>
</svg>
