<svg width="14" height="101" viewBox="0 0 14 101" fill="none" xmlns="http://www.w3.org/2000/svg">
<path d="M13.0335 95.5616V97.07L1.07308 100.175V99.022L5.50942 97.904L11.9155 96.2892C9.08807 95.4966 6.95271 94.8873 5.50942 94.4614L1.25053 93.2192V91.9238L5.52717 90.5929L11.9865 88.6054C8.95794 87.9548 6.81075 87.4875 5.54491 87.2035L1.07308 86.2098V85.1096L13.0335 87.8246V89.333L9.2537 90.5219L2.68791 92.5449C4.32048 92.9945 6.50908 93.6274 9.2537 94.4437L13.0335 95.5616Z" fill="white"/>
<path d="M13.0335 72.9592V79.4362H1.07308L1.07308 73.0656H2.08457L2.08457 78.336H6.5564V73.6867H7.56789V78.336H12.022V72.9592H13.0335Z" fill="white"/>
<path d="M13.0335 60.8172V67.1877H1.07308V66.0875H12.022V60.8172H13.0335Z" fill="white"/>
<path d="M12.4124 46.7339C12.9211 47.4555 13.1754 48.4492 13.1754 49.7151C13.1754 51.5251 12.6253 52.9861 11.5251 54.0982C10.4249 55.2102 8.91062 55.7662 6.98229 55.7662C5.18409 55.7662 3.72306 55.1925 2.59918 54.0449C1.47531 52.8974 0.913373 51.4778 0.913373 49.7861C0.913373 48.6149 1.12632 47.6093 1.55221 46.7693H2.70566C2.43356 47.2899 2.24428 47.7513 2.1378 48.1535C2.0195 48.5557 1.96035 49.1117 1.96035 49.8215C1.96035 51.1939 2.42765 52.3414 3.36223 53.2641C4.28499 54.1751 5.49168 54.6305 6.98229 54.6305C8.54388 54.6305 9.79197 54.181 10.7266 53.2819C11.6612 52.371 12.1284 51.1643 12.1284 49.6618C12.1284 48.4906 11.8209 47.5146 11.2057 46.7339H12.4124Z" fill="white"/>
<path d="M7.00003 31.1067C8.89287 31.1067 10.3953 31.574 11.5074 32.5086C12.6194 33.4432 13.1754 34.7149 13.1754 36.3238C13.1754 37.9091 12.6135 39.1868 11.4896 40.1568C10.3657 41.1151 8.86921 41.5942 7.00003 41.5942C5.11903 41.5942 3.6225 41.1269 2.51046 40.1923C1.38658 39.2459 0.824646 37.9682 0.824646 36.3593C0.824646 34.7031 1.38067 33.4136 2.49271 32.4908C3.59292 31.5681 5.09536 31.1067 7.00003 31.1067ZM7.00003 40.4585C8.57346 40.4585 9.82155 40.0859 10.7443 39.3406C11.6552 38.5834 12.1107 37.5778 12.1107 36.3238C12.1107 35.0225 11.6612 34.0169 10.7621 33.3071C9.85112 32.5973 8.59712 32.2424 7.00003 32.2424C5.39112 32.2424 4.13711 32.6032 3.23802 33.3249C2.33892 34.0347 1.88937 35.0462 1.88937 36.3593C1.88937 37.637 2.34483 38.6426 3.25576 39.376C4.15486 40.0977 5.40295 40.4585 7.00003 40.4585Z" fill="white"/>
<path d="M13.0335 24.232V25.3322L1.07308 24.4982V22.9899L5.45619 21.4283L11.5428 19.3166C9.2951 18.5003 7.26621 17.755 5.45619 17.0807L1.07308 15.4481L1.07308 13.9397L13.0335 12.9282V14.0285L8.29545 14.4366L2.51046 14.9157C4.48611 15.6255 6.41444 16.3294 8.29545 17.0274L12.7318 18.6777V19.9731L8.29545 21.5347L2.63467 23.5222C4.42104 23.6287 6.30796 23.7529 8.29545 23.8949L13.0335 24.232Z" fill="white"/>
<path d="M13.0335 0.175414V6.65247H1.07308L1.07308 0.281895H2.08457L2.08457 5.55226H6.5564V0.90298H7.56789V5.55226H12.022V0.175414H13.0335Z" fill="white"/>
</svg>
