<svg width="100" height="13" viewBox="0 0 100 13" fill="none" xmlns="http://www.w3.org/2000/svg">
<path d="M4.6138 12.2088H3.10544L0 0.248435H1.15345L2.27141 4.68478L3.88624 11.0909C4.67886 8.26343 5.28812 6.12807 5.71401 4.68478L6.95618 0.425889H8.2516L9.5825 4.70252L11.57 11.1618C12.2206 8.13329 12.6879 5.9861 12.9719 4.72027L13.9656 0.248435H15.0658L12.3508 12.2088H10.8424L9.65348 8.42905L7.63051 1.86326C7.18096 3.49584 6.54804 5.68443 5.73175 8.42905L4.6138 12.2088Z" fill="white"/>
<path d="M27.2163 12.2088H20.7392V0.248435H27.1098V1.25992H21.8394V5.73175H26.4887V6.74324H21.8394V11.1973H27.2163V12.2088Z" fill="white"/>
<path d="M39.3583 12.2088H32.9877V0.248435H34.0879V11.1973H39.3583V12.2088Z" fill="white"/>
<path d="M53.4416 11.5877C52.7199 12.0964 51.7262 12.3508 50.4603 12.3508C48.6503 12.3508 47.1893 11.8007 46.0772 10.7005C44.9652 9.60024 44.4092 8.08597 44.4092 6.15764C44.4092 4.35945 44.9829 2.89841 46.1305 1.77454C47.278 0.650664 48.6976 0.0887275 50.3894 0.0887275C51.5606 0.0887275 52.5661 0.301672 53.4061 0.727561V1.88101C52.8855 1.60891 52.4242 1.41963 52.0219 1.31316C51.6197 1.19486 51.0637 1.1357 50.3539 1.1357C48.9816 1.1357 47.834 1.603 46.9113 2.53759C46.0003 3.46035 45.5449 4.66703 45.5449 6.15764C45.5449 7.71924 45.9944 8.96733 46.8935 9.90192C47.8044 10.8365 49.0111 11.3038 50.5136 11.3038C51.6848 11.3038 52.6608 10.9962 53.4416 10.381V11.5877Z" fill="white"/>
<path d="M69.0687 6.17539C69.0687 8.06823 68.6014 9.57067 67.6668 10.6827C66.7322 11.7948 65.4605 12.3508 63.8516 12.3508C62.2663 12.3508 60.9887 11.7888 60.0186 10.665C59.0603 9.54109 58.5812 8.04457 58.5812 6.17539C58.5812 4.29438 59.0485 2.79785 59.9831 1.68581C60.9295 0.561937 62.2072 0 63.8161 0C65.4723 0 66.7618 0.556022 67.6846 1.66806C68.6073 2.76828 69.0687 4.27072 69.0687 6.17539ZM59.7169 6.17539C59.7169 7.74881 60.0896 8.9969 60.8349 9.91966C61.592 10.8306 62.5976 11.2861 63.8516 11.2861C65.1529 11.2861 66.1585 10.8365 66.8683 9.93741C67.5781 9.02648 67.933 7.77247 67.933 6.17539C67.933 4.56648 67.5722 3.31247 66.8505 2.41337C66.1407 1.51427 65.1292 1.06472 63.8161 1.06472C62.5384 1.06472 61.5328 1.52019 60.7994 2.43112C60.0777 3.33021 59.7169 4.57831 59.7169 6.17539Z" fill="white"/>
<path d="M75.9434 12.2088H74.8432L75.6772 0.248435H77.1856L78.7471 4.63154L80.8589 10.7182C81.6751 8.47046 82.4204 6.44157 83.0948 4.63154L84.7273 0.248435H86.2357L87.2472 12.2088H86.147L85.7388 7.4708L85.2597 1.68581C84.5499 3.66146 83.846 5.58979 83.148 7.4708L81.4977 11.9071H80.2023L78.6407 7.4708L76.6532 1.81003C76.5467 3.59639 76.4225 5.48332 76.2805 7.4708L75.9434 12.2088Z" fill="white"/>
<path d="M100 12.2088H93.5229V0.248435H99.8935V1.25992H94.6232V5.73175H99.2724V6.74324H94.6232V11.1973H100V12.2088Z" fill="white"/>
</svg>
